ffmpeg version 4.2.1 Copyright (c) 2000-2019 the FFmpeg developers
  built with gcc 4.8.5 (GCC) 20150623 (Red Hat 4.8.5-44)
  configuration: --enable-pthreads --extra-libs=-lpthread --enable-gpl --enable-nonfree --enable-postproc --enable-bzlib --enable-zlib --enable-libx264 --enable-libmp3lame --enable-libfdk-aac --enable-libspeex --enable-libxml2 --enable-demuxer=dash --pkg-config-flags=--static
  libavutil      56. 31.100 / 56. 31.100
  libavcodec     58. 54.100 / 58. 54.100
  libavformat    58. 29.100 / 58. 29.100
  libavdevice    58.  8.100 / 58.  8.100
  libavfilter     7. 57.100 /  7. 57.100
  libswscale      5.  5.100 /  5.  5.100
  libswresample   3.  5.100 /  3.  5.100
  libpostproc    55.  5.100 / 55.  5.100
Input #0, flv, from 'rtmp://127.0.0.1:1935/live?vhost=__defaultVhost__/livestream':
  Metadata:
    major_brand     : isom
    minor_version   : 512
    compatible_brands: isomiso2avc1mp41
    encoder         : Lavf58.29.100
    server          : SRS/3.0.160(OuXuli)
    server_version  : 3.0.160
  Duration: N/A, start: 0.000000, bitrate: 242 kb/s
    Stream #0:0: Data: none
    Stream #0:1: Audio: aac (LC), 44100 Hz, stereo, fltp, 30 kb/s
    Stream #0:2: Video: h264 (High), yuv420p(progressive), 768x320 [SAR 1:1 DAR 12:5], 212 kb/s, 25 fps, 25 tbr, 1k tbn, 50 tbc
Stream mapping:
  Stream #0:2 -> #0:0 (h264 (native) -> png (native))
Press [q] to stop, [?] for help
Output #0, image2, to './objs/nginx/html/live/livestream-%03d.png':
  Metadata:
    major_brand     : isom
    minor_version   : 512
    compatible_brands: isomiso2avc1mp41
    server_version  : 3.0.160
    server          : SRS/3.0.160(OuXuli)
    encoder         : Lavf58.29.100
    Stream #0:0: Video: png, rgb24, 768x320 [SAR 1:1 DAR 12:5], q=2-31, 200 kb/s, 1 fps, 1 tbn, 1 tbc
    Metadata:
      encoder         : Lavc58.54.100 png
frame=    2 fps=0.0 q=-0.0 size=N/A time=00:00:02.00 bitrate=N/A speed=3.02x    frame=    3 fps=2.2 q=-0.0 size=N/A time=00:00:03.00 bitrate=N/A speed=2.18x    frame=    3 fps=1.4 q=-0.0 size=N/A time=00:00:03.00 bitrate=N/A speed=1.43x    frame=    4 fps=1.4 q=-0.0 size=N/A time=00:00:04.00 bitrate=N/A speed=1.42x    frame=    5 fps=1.4 q=-0.0 size=N/A time=00:00:05.00 bitrate=N/A speed=1.41x    frame=    6 fps=1.5 q=-0.0 Lsize=N/A time=00:00:06.00 bitrate=N/A speed=1.53x    
video:441kB audio:0kB subtitle:0kB other streams:0kB global headers:0kB muxing overhead: unknown
ffmpeg version 4.2.1 Copyright (c) 2000-2019 the FFmpeg developers
  built with gcc 4.8.5 (GCC) 20150623 (Red Hat 4.8.5-44)
  configuration: --enable-pthreads --extra-libs=-lpthread --enable-gpl --enable-nonfree --enable-postproc --enable-bzlib --enable-zlib --enable-libx264 --enable-libmp3lame --enable-libfdk-aac --enable-libspeex --enable-libxml2 --enable-demuxer=dash --pkg-config-flags=--static
  libavutil      56. 31.100 / 56. 31.100
  libavcodec     58. 54.100 / 58. 54.100
  libavformat    58. 29.100 / 58. 29.100
  libavdevice    58.  8.100 / 58.  8.100
  libavfilter     7. 57.100 /  7. 57.100
  libswscale      5.  5.100 /  5.  5.100
  libswresample   3.  5.100 /  3.  5.100
  libpostproc    55.  5.100 / 55.  5.100
Input #0, flv, from 'rtmp://127.0.0.1:1935/live?vhost=__defaultVhost__/livestream':
  Metadata:
    major_brand     : isom
    minor_version   : 512
    compatible_brands: isomiso2avc1mp41
    encoder         : Lavf58.29.100
    server          : SRS/3.0.160(OuXuli)
    server_version  : 3.0.160
  Duration: N/A, start: 0.000000, bitrate: 242 kb/s
    Stream #0:0: Data: none
    Stream #0:1: Audio: aac (LC), 44100 Hz, stereo, fltp, 30 kb/s
    Stream #0:2: Video: h264 (High), yuv420p(progressive), 768x320 [SAR 1:1 DAR 12:5], 212 kb/s, 25 fps, 25 tbr, 1k tbn, 50 tbc
Stream mapping:
  Stream #0:2 -> #0:0 (h264 (native) -> png (native))
Press [q] to stop, [?] for help
Output #0, image2, to './objs/nginx/html/live/livestream-%03d.png':
  Metadata:
    major_brand     : isom
    minor_version   : 512
    compatible_brands: isomiso2avc1mp41
    server_version  : 3.0.160
    server          : SRS/3.0.160(OuXuli)
    encoder         : Lavf58.29.100
    Stream #0:0: Video: png, rgb24, 768x320 [SAR 1:1 DAR 12:5], q=2-31, 200 kb/s, 1 fps, 1 tbn, 1 tbc
    Metadata:
      encoder         : Lavc58.54.100 png
frame=    2 fps=0.0 q=-0.0 size=N/A time=00:00:02.00 bitrate=N/A speed=2.97x    frame=    3 fps=2.2 q=-0.0 size=N/A time=00:00:03.00 bitrate=N/A speed=2.16x    frame=    4 fps=1.9 q=-0.0 size=N/A time=00:00:04.00 bitrate=N/A speed= 1.9x    frame=    4 fps=1.4 q=-0.0 size=N/A time=00:00:04.00 bitrate=N/A speed=1.41x    frame=    5 fps=1.4 q=-0.0 size=N/A time=00:00:05.00 bitrate=N/A speed=1.41x    frame=    6 fps=1.5 q=-0.0 Lsize=N/A time=00:00:06.00 bitrate=N/A speed=1.52x    
video:1135kB audio:0kB subtitle:0kB other streams:0kB global headers:0kB muxing overhead: unknown
ffmpeg version 4.2.1 Copyright (c) 2000-2019 the FFmpeg developers
  built with gcc 4.8.5 (GCC) 20150623 (Red Hat 4.8.5-44)
  configuration: --enable-pthreads --extra-libs=-lpthread --enable-gpl --enable-nonfree --enable-postproc --enable-bzlib --enable-zlib --enable-libx264 --enable-libmp3lame --enable-libfdk-aac --enable-libspeex --enable-libxml2 --enable-demuxer=dash --pkg-config-flags=--static
  libavutil      56. 31.100 / 56. 31.100
  libavcodec     58. 54.100 / 58. 54.100
  libavformat    58. 29.100 / 58. 29.100
  libavdevice    58.  8.100 / 58.  8.100
  libavfilter     7. 57.100 /  7. 57.100
  libswscale      5.  5.100 /  5.  5.100
  libswresample   3.  5.100 /  3.  5.100
  libpostproc    55.  5.100 / 55.  5.100
Input #0, flv, from 'rtmp://127.0.0.1:1935/live?vhost=__defaultVhost__/livestream':
  Metadata:
    major_brand     : isom
    minor_version   : 512
    compatible_brands: isomiso2avc1mp41
    encoder         : Lavf58.29.100
    server          : SRS/3.0.160(OuXuli)
    server_version  : 3.0.160
  Duration: N/A, start: 0.000000, bitrate: 242 kb/s
    Stream #0:0: Data: none
    Stream #0:1: Audio: aac (LC), 44100 Hz, stereo, fltp, 30 kb/s
    Stream #0:2: Video: h264 (High), yuv420p(progressive), 768x320 [SAR 1:1 DAR 12:5], 212 kb/s, 25 fps, 25 tbr, 1k tbn, 50 tbc
Stream mapping:
  Stream #0:2 -> #0:0 (h264 (native) -> png (native))
Press [q] to stop, [?] for help
Output #0, image2, to './objs/nginx/html/live/livestream-%03d.png':
  Metadata:
    major_brand     : isom
    minor_version   : 512
    compatible_brands: isomiso2avc1mp41
    server_version  : 3.0.160
    server          : SRS/3.0.160(OuXuli)
    encoder         : Lavf58.29.100
    Stream #0:0: Video: png, rgb24, 768x320 [SAR 1:1 DAR 12:5], q=2-31, 200 kb/s, 1 fps, 1 tbn, 1 tbc
    Metadata:
      encoder         : Lavc58.54.100 png
frame=    2 fps=0.0 q=-0.0 size=N/A time=00:00:02.00 bitrate=N/A speed=3.16x    frame=    3 fps=2.2 q=-0.0 size=N/A time=00:00:03.00 bitrate=N/A speed=2.22x    frame=    4 fps=1.9 q=-0.0 size=N/A time=00:00:04.00 bitrate=N/A speed=1.93x    frame=    4 fps=1.4 q=-0.0 size=N/A time=00:00:04.00 bitrate=N/A speed=1.43x    frame=    5 fps=1.4 q=-0.0 size=N/A time=00:00:05.00 bitrate=N/A speed=1.42x    frame=    6 fps=1.5 q=-0.0 Lsize=N/A time=00:00:06.00 bitrate=N/A speed=1.53x    
video:695kB audio:0kB subtitle:0kB other streams:0kB global headers:0kB muxing overhead: unknown
ffmpeg version 4.2.1 Copyright (c) 2000-2019 the FFmpeg developers
  built with gcc 4.8.5 (GCC) 20150623 (Red Hat 4.8.5-44)
  configuration: --enable-pthreads --extra-libs=-lpthread --enable-gpl --enable-nonfree --enable-postproc --enable-bzlib --enable-zlib --enable-libx264 --enable-libmp3lame --enable-libfdk-aac --enable-libspeex --enable-libxml2 --enable-demuxer=dash --pkg-config-flags=--static
  libavutil      56. 31.100 / 56. 31.100
  libavcodec     58. 54.100 / 58. 54.100
  libavformat    58. 29.100 / 58. 29.100
  libavdevice    58.  8.100 / 58.  8.100
  libavfilter     7. 57.100 /  7. 57.100
  libswscale      5.  5.100 /  5.  5.100
  libswresample   3.  5.100 /  3.  5.100
  libpostproc    55.  5.100 / 55.  5.100
Input #0, flv, from 'rtmp://127.0.0.1:1935/live?vhost=__defaultVhost__/livestream':
  Metadata:
    major_brand     : isom
    minor_version   : 512
    compatible_brands: isomiso2avc1mp41
    encoder         : Lavf58.29.100
    server          : SRS/3.0.160(OuXuli)
    server_version  : 3.0.160
  Duration: N/A, start: 0.000000, bitrate: 242 kb/s
    Stream #0:0: Data: none
    Stream #0:1: Audio: aac (LC), 44100 Hz, stereo, fltp, 30 kb/s
    Stream #0:2: Video: h264 (High), yuv420p(progressive), 768x320 [SAR 1:1 DAR 12:5], 212 kb/s, 25 fps, 25 tbr, 1k tbn, 50 tbc
Stream mapping:
  Stream #0:2 -> #0:0 (h264 (native) -> png (native))
Press [q] to stop, [?] for help
Output #0, image2, to './objs/nginx/html/live/livestream-%03d.png':
  Metadata:
    major_brand     : isom
    minor_version   : 512
    compatible_brands: isomiso2avc1mp41
    server_version  : 3.0.160
    server          : SRS/3.0.160(OuXuli)
    encoder         : Lavf58.29.100
    Stream #0:0: Video: png, rgb24, 768x320 [SAR 1:1 DAR 12:5], q=2-31, 200 kb/s, 1 fps, 1 tbn, 1 tbc
    Metadata:
      encoder         : Lavc58.54.100 png
frame=    2 fps=0.0 q=-0.0 size=N/A time=00:00:02.00 bitrate=N/A speed=   3x    frame=    3 fps=2.2 q=-0.0 size=N/A time=00:00:03.00 bitrate=N/A speed=2.17x    frame=    4 fps=1.9 q=-0.0 size=N/A time=00:00:04.00 bitrate=N/A speed= 1.9x    frame=    4 fps=1.4 q=-0.0 size=N/A time=00:00:04.00 bitrate=N/A speed=1.41x    frame=    5 fps=1.4 q=-0.0 size=N/A time=00:00:05.00 bitrate=N/A speed=1.41x    frame=    6 fps=1.5 q=-0.0 Lsize=N/A time=00:00:06.00 bitrate=N/A speed=1.52x    
video:1282kB audio:0kB subtitle:0kB other streams:0kB global headers:0kB muxing overhead: unknown
ffmpeg version 4.2.1 Copyright (c) 2000-2019 the FFmpeg developers
  built with gcc 4.8.5 (GCC) 20150623 (Red Hat 4.8.5-44)
  configuration: --enable-pthreads --extra-libs=-lpthread --enable-gpl --enable-nonfree --enable-postproc --enable-bzlib --enable-zlib --enable-libx264 --enable-libmp3lame --enable-libfdk-aac --enable-libspeex --enable-libxml2 --enable-demuxer=dash --pkg-config-flags=--static
  libavutil      56. 31.100 / 56. 31.100
  libavcodec     58. 54.100 / 58. 54.100
  libavformat    58. 29.100 / 58. 29.100
  libavdevice    58.  8.100 / 58.  8.100
  libavfilter     7. 57.100 /  7. 57.100
  libswscale      5.  5.100 /  5.  5.100
  libswresample   3.  5.100 /  3.  5.100
  libpostproc    55.  5.100 / 55.  5.100
Input #0, flv, from 'rtmp://127.0.0.1:1935/live?vhost=__defaultVhost__/livestream':
  Metadata:
    major_brand     : isom
    minor_version   : 512
    compatible_brands: isomiso2avc1mp41
    encoder         : Lavf58.29.100
    server          : SRS/3.0.160(OuXuli)
    server_version  : 3.0.160
  Duration: N/A, start: 0.000000, bitrate: 242 kb/s
    Stream #0:0: Data: none
    Stream #0:1: Audio: aac (LC), 44100 Hz, stereo, fltp, 30 kb/s
    Stream #0:2: Video: h264 (High), yuv420p(progressive), 768x320 [SAR 1:1 DAR 12:5], 212 kb/s, 25 fps, 25 tbr, 1k tbn, 50 tbc
Stream mapping:
  Stream #0:2 -> #0:0 (h264 (native) -> png (native))
Press [q] to stop, [?] for help
Output #0, image2, to './objs/nginx/html/live/livestream-%03d.png':
  Metadata:
    major_brand     : isom
    minor_version   : 512
    compatible_brands: isomiso2avc1mp41
    server_version  : 3.0.160
    server          : SRS/3.0.160(OuXuli)
    encoder         : Lavf58.29.100
    Stream #0:0: Video: png, rgb24, 768x320 [SAR 1:1 DAR 12:5], q=2-31, 200 kb/s, 1 fps, 1 tbn, 1 tbc
    Metadata:
      encoder         : Lavc58.54.100 png
frame=    3 fps=0.0 q=-0.0 size=N/A time=00:00:03.00 bitrate=N/A speed=4.92x    frame=    4 fps=3.0 q=-0.0 size=N/A time=00:00:04.00 bitrate=N/A speed=3.01x    frame=    5 fps=2.4 q=-0.0 size=N/A time=00:00:05.00 bitrate=N/A speed=2.44x    frame=    6 fps=2.1 q=-0.0 Lsize=N/A time=00:00:06.00 bitrate=N/A speed=2.14x    
video:1054kB audio:0kB subtitle:0kB other streams:0kB global headers:0kB muxing overhead: unknown
ffmpeg version 4.2.1 Copyright (c) 2000-2019 the FFmpeg developers
  built with gcc 4.8.5 (GCC) 20150623 (Red Hat 4.8.5-44)
  configuration: --enable-pthreads --extra-libs=-lpthread --enable-gpl --enable-nonfree --enable-postproc --enable-bzlib --enable-zlib --enable-libx264 --enable-libmp3lame --enable-libfdk-aac --enable-libspeex --enable-libxml2 --enable-demuxer=dash --pkg-config-flags=--static
  libavutil      56. 31.100 / 56. 31.100
  libavcodec     58. 54.100 / 58. 54.100
  libavformat    58. 29.100 / 58. 29.100
  libavdevice    58.  8.100 / 58.  8.100
  libavfilter     7. 57.100 /  7. 57.100
  libswscale      5.  5.100 /  5.  5.100
  libswresample   3.  5.100 /  3.  5.100
  libpostproc    55.  5.100 / 55.  5.100
Input #0, flv, from 'rtmp://127.0.0.1:1935/live?vhost=__defaultVhost__/livestream':
  Metadata:
    major_brand     : isom
    minor_version   : 512
    compatible_brands: isomiso2avc1mp41
    encoder         : Lavf58.29.100
    server          : SRS/3.0.160(OuXuli)
    server_version  : 3.0.160
  Duration: N/A, start: 0.000000, bitrate: 242 kb/s
    Stream #0:0: Data: none
    Stream #0:1: Audio: aac (LC), 44100 Hz, stereo, fltp, 30 kb/s
    Stream #0:2: Video: h264 (High), yuv420p(progressive), 768x320 [SAR 1:1 DAR 12:5], 212 kb/s, 25 fps, 25 tbr, 1k tbn, 50 tbc
Stream mapping:
  Stream #0:2 -> #0:0 (h264 (native) -> png (native))
Press [q] to stop, [?] for help
Output #0, image2, to './objs/nginx/html/live/livestream-%03d.png':
  Metadata:
    major_brand     : isom
    minor_version   : 512
    compatible_brands: isomiso2avc1mp41
    server_version  : 3.0.160
    server          : SRS/3.0.160(OuXuli)
    encoder         : Lavf58.29.100
    Stream #0:0: Video: png, rgb24, 768x320 [SAR 1:1 DAR 12:5], q=2-31, 200 kb/s, 1 fps, 1 tbn, 1 tbc
    Metadata:
      encoder         : Lavc58.54.100 png
frame=    3 fps=0.0 q=-0.0 size=N/A time=00:00:03.00 bitrate=N/A speed=4.65x    frame=    4 fps=2.9 q=-0.0 size=N/A time=00:00:04.00 bitrate=N/A speed=2.94x    frame=    5 fps=2.4 q=-0.0 size=N/A time=00:00:05.00 bitrate=N/A speed=2.39x    frame=    6 fps=2.4 q=-0.0 Lsize=N/A time=00:00:06.00 bitrate=N/A speed=2.41x    
video:1728kB audio:0kB subtitle:0kB other streams:0kB global headers:0kB muxing overhead: unknown
ffmpeg version 4.2.1 Copyright (c) 2000-2019 the FFmpeg developers
  built with gcc 4.8.5 (GCC) 20150623 (Red Hat 4.8.5-44)
  configuration: --enable-pthreads --extra-libs=-lpthread --enable-gpl --enable-nonfree --enable-postproc --enable-bzlib --enable-zlib --enable-libx264 --enable-libmp3lame --enable-libfdk-aac --enable-libspeex --enable-libxml2 --enable-demuxer=dash --pkg-config-flags=--static
  libavutil      56. 31.100 / 56. 31.100
  libavcodec     58. 54.100 / 58. 54.100
  libavformat    58. 29.100 / 58. 29.100
  libavdevice    58.  8.100 / 58.  8.100
  libavfilter     7. 57.100 /  7. 57.100
  libswscale      5.  5.100 /  5.  5.100
  libswresample   3.  5.100 /  3.  5.100
  libpostproc    55.  5.100 / 55.  5.100
Input #0, flv, from 'rtmp://127.0.0.1:1935/live?vhost=__defaultVhost__/livestream':
  Metadata:
    major_brand     : isom
    minor_version   : 512
    compatible_brands: isomiso2avc1mp41
    encoder         : Lavf58.29.100
    server          : SRS/3.0.160(OuXuli)
    server_version  : 3.0.160
  Duration: N/A, start: 0.000000, bitrate: 242 kb/s
    Stream #0:0: Data: none
    Stream #0:1: Audio: aac (LC), 44100 Hz, stereo, fltp, 30 kb/s
    Stream #0:2: Video: h264 (High), yuv420p(progressive), 768x320 [SAR 1:1 DAR 12:5], 212 kb/s, 25 fps, 25 tbr, 1k tbn, 50 tbc
Stream mapping:
  Stream #0:2 -> #0:0 (h264 (native) -> png (native))
Press [q] to stop, [?] for help
Output #0, image2, to './objs/nginx/html/live/livestream-%03d.png':
  Metadata:
    major_brand     : isom
    minor_version   : 512
    compatible_brands: isomiso2avc1mp41
    server_version  : 3.0.160
    server          : SRS/3.0.160(OuXuli)
    encoder         : Lavf58.29.100
    Stream #0:0: Video: png, rgb24, 768x320 [SAR 1:1 DAR 12:5], q=2-31, 200 kb/s, 1 fps, 1 tbn, 1 tbc
    Metadata:
      encoder         : Lavc58.54.100 png
frame=    2 fps=0.0 q=-0.0 size=N/A time=00:00:02.00 bitrate=N/A speed= 3.1x    frame=    3 fps=2.2 q=-0.0 size=N/A time=00:00:03.00 bitrate=N/A speed= 2.2x    frame=    4 fps=1.9 q=-0.0 size=N/A time=00:00:04.00 bitrate=N/A speed=1.92x    frame=    5 fps=1.8 q=-0.0 size=N/A time=00:00:05.00 bitrate=N/A speed=1.79x    frame=    5 fps=1.4 q=-0.0 size=N/A time=00:00:05.00 bitrate=N/A speed=1.42x    frame=    6 fps=1.7 q=-0.0 Lsize=N/A time=00:00:06.00 bitrate=N/A speed=1.68x    
video:1738kB audio:0kB subtitle:0kB other streams:0kB global headers:0kB muxing overhead: unknown
ffmpeg version 4.2.1 Copyright (c) 2000-2019 the FFmpeg developers
  built with gcc 4.8.5 (GCC) 20150623 (Red Hat 4.8.5-44)
  configuration: --enable-pthreads --extra-libs=-lpthread --enable-gpl --enable-nonfree --enable-postproc --enable-bzlib --enable-zlib --enable-libx264 --enable-libmp3lame --enable-libfdk-aac --enable-libspeex --enable-libxml2 --enable-demuxer=dash --pkg-config-flags=--static
  libavutil      56. 31.100 / 56. 31.100
  libavcodec     58. 54.100 / 58. 54.100
  libavformat    58. 29.100 / 58. 29.100
  libavdevice    58.  8.100 / 58.  8.100
  libavfilter     7. 57.100 /  7. 57.100
  libswscale      5.  5.100 /  5.  5.100
  libswresample   3.  5.100 /  3.  5.100
  libpostproc    55.  5.100 / 55.  5.100
Input #0, flv, from 'rtmp://127.0.0.1:1935/live?vhost=__defaultVhost__/livestream':
  Metadata:
    major_brand     : isom
    minor_version   : 512
    compatible_brands: isomiso2avc1mp41
    encoder         : Lavf58.29.100
    server          : SRS/3.0.160(OuXuli)
    server_version  : 3.0.160
  Duration: N/A, start: 0.000000, bitrate: 242 kb/s
    Stream #0:0: Data: none
    Stream #0:1: Audio: aac (LC), 44100 Hz, stereo, fltp, 30 kb/s
    Stream #0:2: Video: h264 (High), yuv420p(progressive), 768x320 [SAR 1:1 DAR 12:5], 212 kb/s, 25 fps, 25 tbr, 1k tbn, 50 tbc
Stream mapping:
  Stream #0:2 -> #0:0 (h264 (native) -> png (native))
Press [q] to stop, [?] for help
Output #0, image2, to './objs/nginx/html/live/livestream-%03d.png':
  Metadata:
    major_brand     : isom
    minor_version   : 512
    compatible_brands: isomiso2avc1mp41
    server_version  : 3.0.160
    server          : SRS/3.0.160(OuXuli)
    encoder         : Lavf58.29.100
    Stream #0:0: Video: png, rgb24, 768x320 [SAR 1:1 DAR 12:5], q=2-31, 200 kb/s, 1 fps, 1 tbn, 1 tbc
    Metadata:
      encoder         : Lavc58.54.100 png
frame=    2 fps=0.0 q=-0.0 size=N/A time=00:00:02.00 bitrate=N/A speed=3.06x    frame=    3 fps=2.2 q=-0.0 size=N/A time=00:00:03.00 bitrate=N/A speed=2.18x    frame=    4 fps=1.9 q=-0.0 size=N/A time=00:00:04.00 bitrate=N/A speed=1.91x    frame=    4 fps=1.4 q=-0.0 size=N/A time=00:00:04.00 bitrate=N/A speed=1.42x    frame=    5 fps=1.4 q=-0.0 size=N/A time=00:00:05.00 bitrate=N/A speed=1.41x    frame=    6 fps=1.5 q=-0.0 Lsize=N/A time=00:00:06.00 bitrate=N/A speed=1.53x    
video:1370kB audio:0kB subtitle:0kB other streams:0kB global headers:0kB muxing overhead: unknown
ffmpeg version 4.2.1 Copyright (c) 2000-2019 the FFmpeg developers
  built with gcc 4.8.5 (GCC) 20150623 (Red Hat 4.8.5-44)
  configuration: --enable-pthreads --extra-libs=-lpthread --enable-gpl --enable-nonfree --enable-postproc --enable-bzlib --enable-zlib --enable-libx264 --enable-libmp3lame --enable-libfdk-aac --enable-libspeex --enable-libxml2 --enable-demuxer=dash --pkg-config-flags=--static
  libavutil      56. 31.100 / 56. 31.100
  libavcodec     58. 54.100 / 58. 54.100
  libavformat    58. 29.100 / 58. 29.100
  libavdevice    58.  8.100 / 58.  8.100
  libavfilter     7. 57.100 /  7. 57.100
  libswscale      5.  5.100 /  5.  5.100
  libswresample   3.  5.100 /  3.  5.100
  libpostproc    55.  5.100 / 55.  5.100
Input #0, flv, from 'rtmp://127.0.0.1:1935/live?vhost=__defaultVhost__/livestream':
  Metadata:
    major_brand     : isom
    minor_version   : 512
    compatible_brands: isomiso2avc1mp41
    encoder         : Lavf58.29.100
    server          : SRS/3.0.160(OuXuli)
    server_version  : 3.0.160
  Duration: N/A, start: 0.000000, bitrate: 242 kb/s
    Stream #0:0: Data: none
    Stream #0:1: Audio: aac (LC), 44100 Hz, stereo, fltp, 30 kb/s
    Stream #0:2: Video: h264 (High), yuv420p(progressive), 768x320 [SAR 1:1 DAR 12:5], 212 kb/s, 25 fps, 25 tbr, 1k tbn, 50 tbc
Stream mapping:
  Stream #0:2 -> #0:0 (h264 (native) -> png (native))
Press [q] to stop, [?] for help
Output #0, image2, to './objs/nginx/html/live/livestream-%03d.png':
  Metadata:
    major_brand     : isom
    minor_version   : 512
    compatible_brands: isomiso2avc1mp41
    server_version  : 3.0.160
    server          : SRS/3.0.160(OuXuli)
    encoder         : Lavf58.29.100
    Stream #0:0: Video: png, rgb24, 768x320 [SAR 1:1 DAR 12:5], q=2-31, 200 kb/s, 1 fps, 1 tbn, 1 tbc
    Metadata:
      encoder         : Lavc58.54.100 png
frame=    2 fps=0.0 q=-0.0 size=N/A time=00:00:02.00 bitrate=N/A speed=2.98x    frame=    3 fps=2.2 q=-0.0 size=N/A time=00:00:03.00 bitrate=N/A speed=2.17x    frame=    4 fps=1.9 q=-0.0 size=N/A time=00:00:04.00 bitrate=N/A speed= 1.9x    frame=    4 fps=1.4 q=-0.0 size=N/A time=00:00:04.00 bitrate=N/A speed=1.41x    frame=    5 fps=1.4 q=-0.0 size=N/A time=00:00:05.00 bitrate=N/A speed=1.41x    frame=    6 fps=1.5 q=-0.0 Lsize=N/A time=00:00:06.00 bitrate=N/A speed=1.52x    
video:1592kB audio:0kB subtitle:0kB other streams:0kB global headers:0kB muxing overhead: unknown
ffmpeg version 4.2.1 Copyright (c) 2000-2019 the FFmpeg developers
  built with gcc 4.8.5 (GCC) 20150623 (Red Hat 4.8.5-44)
  configuration: --enable-pthreads --extra-libs=-lpthread --enable-gpl --enable-nonfree --enable-postproc --enable-bzlib --enable-zlib --enable-libx264 --enable-libmp3lame --enable-libfdk-aac --enable-libspeex --enable-libxml2 --enable-demuxer=dash --pkg-config-flags=--static
  libavutil      56. 31.100 / 56. 31.100
  libavcodec     58. 54.100 / 58. 54.100
  libavformat    58. 29.100 / 58. 29.100
  libavdevice    58.  8.100 / 58.  8.100
  libavfilter     7. 57.100 /  7. 57.100
  libswscale      5.  5.100 /  5.  5.100
  libswresample   3.  5.100 /  3.  5.100
  libpostproc    55.  5.100 / 55.  5.100
Input #0, flv, from 'rtmp://127.0.0.1:1935/live?vhost=__defaultVhost__/livestream':
  Metadata:
    major_brand     : isom
    minor_version   : 512
    compatible_brands: isomiso2avc1mp41
    encoder         : Lavf58.29.100
    server          : SRS/3.0.160(OuXuli)
    server_version  : 3.0.160
  Duration: N/A, start: 0.000000, bitrate: 242 kb/s
    Stream #0:0: Data: none
    Stream #0:1: Audio: aac (LC), 44100 Hz, stereo, fltp, 30 kb/s
    Stream #0:2: Video: h264 (High), yuv420p(progressive), 768x320 [SAR 1:1 DAR 12:5], 212 kb/s, 25 fps, 25 tbr, 1k tbn, 50 tbc
Stream mapping:
  Stream #0:2 -> #0:0 (h264 (native) -> png (native))
Press [q] to stop, [?] for help
Output #0, image2, to './objs/nginx/html/live/livestream-%03d.png':
  Metadata:
    major_brand     : isom
    minor_version   : 512
    compatible_brands: isomiso2avc1mp41
    server_version  : 3.0.160
    server          : SRS/3.0.160(OuXuli)
    encoder         : Lavf58.29.100
    Stream #0:0: Video: png, rgb24, 768x320 [SAR 1:1 DAR 12:5], q=2-31, 200 kb/s, 1 fps, 1 tbn, 1 tbc
    Metadata:
      encoder         : Lavc58.54.100 png
frame=    2 fps=0.0 q=-0.0 size=N/A time=00:00:02.00 bitrate=N/A speed=   3x    frame=    3 fps=2.2 q=-0.0 size=N/A time=00:00:03.00 bitrate=N/A speed=2.16x    frame=    4 fps=1.9 q=-0.0 size=N/A time=00:00:04.00 bitrate=N/A speed= 1.9x    frame=    4 fps=1.4 q=-0.0 size=N/A time=00:00:04.00 bitrate=N/A speed=1.42x    frame=    5 fps=1.4 q=-0.0 size=N/A time=00:00:05.00 bitrate=N/A speed=1.41x    frame=    5 fps=1.2 q=-0.0 size=N/A time=00:00:05.00 bitrate=N/A speed=1.21x    frame=    6 fps=1.3 q=-0.0 Lsize=N/A time=00:00:06.00 bitrate=N/A speed=1.29x    
video:1105kB audio:0kB subtitle:0kB other streams:0kB global headers:0kB muxing overhead: unknown
ffmpeg version 4.2.1 Copyright (c) 2000-2019 the FFmpeg developers
  built with gcc 4.8.5 (GCC) 20150623 (Red Hat 4.8.5-44)
  configuration: --enable-pthreads --extra-libs=-lpthread --enable-gpl --enable-nonfree --enable-postproc --enable-bzlib --enable-zlib --enable-libx264 --enable-libmp3lame --enable-libfdk-aac --enable-libspeex --enable-libxml2 --enable-demuxer=dash --pkg-config-flags=--static
  libavutil      56. 31.100 / 56. 31.100
  libavcodec     58. 54.100 / 58. 54.100
  libavformat    58. 29.100 / 58. 29.100
  libavdevice    58.  8.100 / 58.  8.100
  libavfilter     7. 57.100 /  7. 57.100
  libswscale      5.  5.100 /  5.  5.100
  libswresample   3.  5.100 /  3.  5.100
  libpostproc    55.  5.100 / 55.  5.100
Input #0, flv, from 'rtmp://127.0.0.1:1935/live?vhost=__defaultVhost__/livestream':
  Metadata:
    major_brand     : isom
    minor_version   : 512
    compatible_brands: isomiso2avc1mp41
    encoder         : Lavf58.29.100
    server          : SRS/3.0.160(OuXuli)
    server_version  : 3.0.160
  Duration: N/A, start: 0.000000, bitrate: 242 kb/s
    Stream #0:0: Data: none
    Stream #0:1: Audio: aac (LC), 44100 Hz, stereo, fltp, 30 kb/s
    Stream #0:2: Video: h264 (High), yuv420p(progressive), 768x320 [SAR 1:1 DAR 12:5], 212 kb/s, 25 fps, 25 tbr, 1k tbn, 50 tbc
Stream mapping:
  Stream #0:2 -> #0:0 (h264 (native) -> png (native))
Press [q] to stop, [?] for help
Output #0, image2, to './objs/nginx/html/live/livestream-%03d.png':
  Metadata:
    major_brand     : isom
    minor_version   : 512
    compatible_brands: isomiso2avc1mp41
    server_version  : 3.0.160
    server          : SRS/3.0.160(OuXuli)
    encoder         : Lavf58.29.100
    Stream #0:0: Video: png, rgb24, 768x320 [SAR 1:1 DAR 12:5], q=2-31, 200 kb/s, 1 fps, 1 tbn, 1 tbc
    Metadata:
      encoder         : Lavc58.54.100 png
frame=    2 fps=0.0 q=-0.0 size=N/A time=00:00:02.00 bitrate=N/A speed=3.12x    frame=    3 fps=2.2 q=-0.0 size=N/A time=00:00:03.00 bitrate=N/A speed=2.19x    frame=    4 fps=1.9 q=-0.0 size=N/A time=00:00:04.00 bitrate=N/A speed=1.92x    frame=    4 fps=1.4 q=-0.0 size=N/A time=00:00:04.00 bitrate=N/A speed=1.42x    frame=    5 fps=1.4 q=-0.0 size=N/A time=00:00:05.00 bitrate=N/A speed=1.42x    frame=    6 fps=1.5 q=-0.0 Lsize=N/A time=00:00:06.00 bitrate=N/A speed=1.52x    
video:1482kB audio:0kB subtitle:0kB other streams:0kB global headers:0kB muxing overhead: unknown
ffmpeg version 4.2.1 Copyright (c) 2000-2019 the FFmpeg developers
  built with gcc 4.8.5 (GCC) 20150623 (Red Hat 4.8.5-44)
  configuration: --enable-pthreads --extra-libs=-lpthread --enable-gpl --enable-nonfree --enable-postproc --enable-bzlib --enable-zlib --enable-libx264 --enable-libmp3lame --enable-libfdk-aac --enable-libspeex --enable-libxml2 --enable-demuxer=dash --pkg-config-flags=--static
  libavutil      56. 31.100 / 56. 31.100
  libavcodec     58. 54.100 / 58. 54.100
  libavformat    58. 29.100 / 58. 29.100
  libavdevice    58.  8.100 / 58.  8.100
  libavfilter     7. 57.100 /  7. 57.100
  libswscale      5.  5.100 /  5.  5.100
  libswresample   3.  5.100 /  3.  5.100
  libpostproc    55.  5.100 / 55.  5.100
Input #0, flv, from 'rtmp://127.0.0.1:1935/live?vhost=__defaultVhost__/livestream':
  Metadata:
    major_brand     : isom
    minor_version   : 512
    compatible_brands: isomiso2avc1mp41
    encoder         : Lavf58.29.100
    server          : SRS/3.0.160(OuXuli)
    server_version  : 3.0.160
  Duration: N/A, start: 0.000000, bitrate: 242 kb/s
    Stream #0:0: Data: none
    Stream #0:1: Audio: aac (LC), 44100 Hz, stereo, fltp, 30 kb/s
    Stream #0:2: Video: h264 (High), yuv420p(progressive), 768x320 [SAR 1:1 DAR 12:5], 212 kb/s, 25 fps, 25 tbr, 1k tbn, 50 tbc
Stream mapping:
  Stream #0:2 -> #0:0 (h264 (native) -> png (native))
Press [q] to stop, [?] for help
Output #0, image2, to './objs/nginx/html/live/livestream-%03d.png':
  Metadata:
    major_brand     : isom
    minor_version   : 512
    compatible_brands: isomiso2avc1mp41
    server_version  : 3.0.160
    server          : SRS/3.0.160(OuXuli)
    encoder         : Lavf58.29.100
    Stream #0:0: Video: png, rgb24, 768x320 [SAR 1:1 DAR 12:5], q=2-31, 200 kb/s, 1 fps, 1 tbn, 1 tbc
    Metadata:
      encoder         : Lavc58.54.100 png
frame=    2 fps=0.0 q=-0.0 size=N/A time=00:00:02.00 bitrate=N/A speed=3.07x    frame=    3 fps=2.2 q=-0.0 size=N/A time=00:00:03.00 bitrate=N/A speed=2.19x    frame=    4 fps=1.9 q=-0.0 size=N/A time=00:00:04.00 bitrate=N/A speed=1.91x    frame=    4 fps=1.4 q=-0.0 size=N/A time=00:00:04.00 bitrate=N/A speed=1.42x    frame=    5 fps=1.4 q=-0.0 size=N/A time=00:00:05.00 bitrate=N/A speed=1.42x    frame=    6 fps=1.5 q=-0.0 Lsize=N/A time=00:00:06.00 bitrate=N/A speed=1.52x    
video:1349kB audio:0kB subtitle:0kB other streams:0kB global headers:0kB muxing overhead: unknown
ffmpeg version 4.2.1 Copyright (c) 2000-2019 the FFmpeg developers
  built with gcc 4.8.5 (GCC) 20150623 (Red Hat 4.8.5-44)
  configuration: --enable-pthreads --extra-libs=-lpthread --enable-gpl --enable-nonfree --enable-postproc --enable-bzlib --enable-zlib --enable-libx264 --enable-libmp3lame --enable-libfdk-aac --enable-libspeex --enable-libxml2 --enable-demuxer=dash --pkg-config-flags=--static
  libavutil      56. 31.100 / 56. 31.100
  libavcodec     58. 54.100 / 58. 54.100
  libavformat    58. 29.100 / 58. 29.100
  libavdevice    58.  8.100 / 58.  8.100
  libavfilter     7. 57.100 /  7. 57.100
  libswscale      5.  5.100 /  5.  5.100
  libswresample   3.  5.100 /  3.  5.100
  libpostproc    55.  5.100 / 55.  5.100
Input #0, flv, from 'rtmp://127.0.0.1:1935/live?vhost=__defaultVhost__/livestream':
  Metadata:
    major_brand     : isom
    minor_version   : 512
    compatible_brands: isomiso2avc1mp41
    encoder         : Lavf58.29.100
    server          : SRS/3.0.160(OuXuli)
    server_version  : 3.0.160
  Duration: N/A, start: 0.000000, bitrate: 242 kb/s
    Stream #0:0: Data: none
    Stream #0:1: Audio: aac (LC), 44100 Hz, stereo, fltp, 30 kb/s
    Stream #0:2: Video: h264 (High), yuv420p(progressive), 768x320 [SAR 1:1 DAR 12:5], 212 kb/s, 25 fps, 25 tbr, 1k tbn, 50 tbc
Stream mapping:
  Stream #0:2 -> #0:0 (h264 (native) -> png (native))
Press [q] to stop, [?] for help
Output #0, image2, to './objs/nginx/html/live/livestream-%03d.png':
  Metadata:
    major_brand     : isom
    minor_version   : 512
    compatible_brands: isomiso2avc1mp41
    server_version  : 3.0.160
    server          : SRS/3.0.160(OuXuli)
    encoder         : Lavf58.29.100
    Stream #0:0: Video: png, rgb24, 768x320 [SAR 1:1 DAR 12:5], q=2-31, 200 kb/s, 1 fps, 1 tbn, 1 tbc
    Metadata:
      encoder         : Lavc58.54.100 png
frame=    2 fps=0.0 q=-0.0 size=N/A time=00:00:02.00 bitrate=N/A speed=3.02x    frame=    3 fps=2.2 q=-0.0 size=N/A time=00:00:03.00 bitrate=N/A speed=2.16x    frame=    3 fps=1.4 q=-0.0 size=N/A time=00:00:03.00 bitrate=N/A speed=1.42x    frame=    4 fps=1.4 q=-0.0 size=N/A time=00:00:04.00 bitrate=N/A speed=1.41x    frame=    5 fps=1.4 q=-0.0 size=N/A time=00:00:05.00 bitrate=N/A speed=1.41x    frame=    6 fps=1.5 q=-0.0 Lsize=N/A time=00:00:06.00 bitrate=N/A speed=1.52x    
video:1351kB audio:0kB subtitle:0kB other streams:0kB global headers:0kB muxing overhead: unknown
ffmpeg version 4.2.1 Copyright (c) 2000-2019 the FFmpeg developers
  built with gcc 4.8.5 (GCC) 20150623 (Red Hat 4.8.5-44)
  configuration: --enable-pthreads --extra-libs=-lpthread --enable-gpl --enable-nonfree --enable-postproc --enable-bzlib --enable-zlib --enable-libx264 --enable-libmp3lame --enable-libfdk-aac --enable-libspeex --enable-libxml2 --enable-demuxer=dash --pkg-config-flags=--static
  libavutil      56. 31.100 / 56. 31.100
  libavcodec     58. 54.100 / 58. 54.100
  libavformat    58. 29.100 / 58. 29.100
  libavdevice    58.  8.100 / 58.  8.100
  libavfilter     7. 57.100 /  7. 57.100
  libswscale      5.  5.100 /  5.  5.100
  libswresample   3.  5.100 /  3.  5.100
  libpostproc    55.  5.100 / 55.  5.100
Input #0, flv, from 'rtmp://127.0.0.1:1935/live?vhost=__defaultVhost__/livestream':
  Metadata:
    major_brand     : isom
    minor_version   : 512
    compatible_brands: isomiso2avc1mp41
    encoder         : Lavf58.29.100
    server          : SRS/3.0.160(OuXuli)
    server_version  : 3.0.160
  Duration: N/A, start: 0.000000, bitrate: 242 kb/s
    Stream #0:0: Data: none
    Stream #0:1: Audio: aac (LC), 44100 Hz, stereo, fltp, 30 kb/s
    Stream #0:2: Video: h264 (High), yuv420p(progressive), 768x320 [SAR 1:1 DAR 12:5], 212 kb/s, 25 fps, 25 tbr, 1k tbn, 50 tbc
Stream mapping:
  Stream #0:2 -> #0:0 (h264 (native) -> png (native))
Press [q] to stop, [?] for help
Output #0, image2, to './objs/nginx/html/live/livestream-%03d.png':
  Metadata:
    major_brand     : isom
    minor_version   : 512
    compatible_brands: isomiso2avc1mp41
    server_version  : 3.0.160
    server          : SRS/3.0.160(OuXuli)
    encoder         : Lavf58.29.100
    Stream #0:0: Video: png, rgb24, 768x320 [SAR 1:1 DAR 12:5], q=2-31, 200 kb/s, 1 fps, 1 tbn, 1 tbc
    Metadata:
      encoder         : Lavc58.54.100 png
frame=    2 fps=0.0 q=-0.0 size=N/A time=00:00:02.00 bitrate=N/A speed=3.01x    frame=    3 fps=2.2 q=-0.0 size=N/A time=00:00:03.00 bitrate=N/A speed=2.16x    frame=    3 fps=1.4 q=-0.0 size=N/A time=00:00:03.00 bitrate=N/A speed=1.42x    frame=    4 fps=1.4 q=-0.0 size=N/A time=00:00:04.00 bitrate=N/A speed=1.41x    frame=    5 fps=1.4 q=-0.0 size=N/A time=00:00:05.00 bitrate=N/A speed=1.41x    frame=    5 fps=1.2 q=-0.0 size=N/A time=00:00:05.00 bitrate=N/A speed=1.23x    frame=    6 fps=1.5 q=-0.0 Lsize=N/A time=00:00:06.00 bitrate=N/A speed=1.46x    
video:1689kB audio:0kB subtitle:0kB other streams:0kB global headers:0kB muxing overhead: unknown
ffmpeg version 4.2.1 Copyright (c) 2000-2019 the FFmpeg developers
  built with gcc 4.8.5 (GCC) 20150623 (Red Hat 4.8.5-44)
  configuration: --enable-pthreads --extra-libs=-lpthread --enable-gpl --enable-nonfree --enable-postproc --enable-bzlib --enable-zlib --enable-libx264 --enable-libmp3lame --enable-libfdk-aac --enable-libspeex --enable-libxml2 --enable-demuxer=dash --pkg-config-flags=--static
  libavutil      56. 31.100 / 56. 31.100
  libavcodec     58. 54.100 / 58. 54.100
  libavformat    58. 29.100 / 58. 29.100
  libavdevice    58.  8.100 / 58.  8.100
  libavfilter     7. 57.100 /  7. 57.100
  libswscale      5.  5.100 /  5.  5.100
  libswresample   3.  5.100 /  3.  5.100
  libpostproc    55.  5.100 / 55.  5.100
Input #0, flv, from 'rtmp://127.0.0.1:1935/live?vhost=__defaultVhost__/livestream':
  Metadata:
    major_brand     : isom
    minor_version   : 512
    compatible_brands: isomiso2avc1mp41
    encoder         : Lavf58.29.100
    server          : SRS/3.0.160(OuXuli)
    server_version  : 3.0.160
  Duration: N/A, start: 0.000000, bitrate: 242 kb/s
    Stream #0:0: Data: none
    Stream #0:1: Audio: aac (LC), 44100 Hz, stereo, fltp, 30 kb/s
    Stream #0:2: Video: h264 (High), yuv420p(progressive), 768x320 [SAR 1:1 DAR 12:5], 212 kb/s, 25 fps, 25 tbr, 1k tbn, 50 tbc
Stream mapping:
  Stream #0:2 -> #0:0 (h264 (native) -> png (native))
Press [q] to stop, [?] for help
Output #0, image2, to './objs/nginx/html/live/livestream-%03d.png':
  Metadata:
    major_brand     : isom
    minor_version   : 512
    compatible_brands: isomiso2avc1mp41
    server_version  : 3.0.160
    server          : SRS/3.0.160(OuXuli)
    encoder         : Lavf58.29.100
    Stream #0:0: Video: png, rgb24, 768x320 [SAR 1:1 DAR 12:5], q=2-31, 200 kb/s, 1 fps, 1 tbn, 1 tbc
    Metadata:
      encoder         : Lavc58.54.100 png
frame=    5 fps=0.0 q=-0.0 size=N/A time=00:00:05.00 bitrate=N/A speed=   8x    frame=    6 fps=5.8 q=-0.0 Lsize=N/A time=00:00:06.00 bitrate=N/A speed=5.78x    
video:942kB audio:0kB subtitle:0kB other streams:0kB global headers:0kB muxing overhead: unknown
ffmpeg version 4.2.1 Copyright (c) 2000-2019 the FFmpeg developers
  built with gcc 4.8.5 (GCC) 20150623 (Red Hat 4.8.5-44)
  configuration: --enable-pthreads --extra-libs=-lpthread --enable-gpl --enable-nonfree --enable-postproc --enable-bzlib --enable-zlib --enable-libx264 --enable-libmp3lame --enable-libfdk-aac --enable-libspeex --enable-libxml2 --enable-demuxer=dash --pkg-config-flags=--static
  libavutil      56. 31.100 / 56. 31.100
  libavcodec     58. 54.100 / 58. 54.100
  libavformat    58. 29.100 / 58. 29.100
  libavdevice    58.  8.100 / 58.  8.100
  libavfilter     7. 57.100 /  7. 57.100
  libswscale      5.  5.100 /  5.  5.100
  libswresample   3.  5.100 /  3.  5.100
  libpostproc    55.  5.100 / 55.  5.100
Input #0, flv, from 'rtmp://127.0.0.1:1935/live?vhost=__defaultVhost__/livestream':
  Metadata:
    major_brand     : isom
    minor_version   : 512
    compatible_brands: isomiso2avc1mp41
    encoder         : Lavf58.29.100
    server          : SRS/3.0.160(OuXuli)
    server_version  : 3.0.160
  Duration: N/A, start: 0.000000, bitrate: 242 kb/s
    Stream #0:0: Data: none
    Stream #0:1: Audio: aac (LC), 44100 Hz, stereo, fltp, 30 kb/s
    Stream #0:2: Video: h264 (High), yuv420p(progressive), 768x320 [SAR 1:1 DAR 12:5], 212 kb/s, 25 fps, 25 tbr, 1k tbn, 50 tbc
Stream mapping:
  Stream #0:2 -> #0:0 (h264 (native) -> png (native))
Press [q] to stop, [?] for help
Output #0, image2, to './objs/nginx/html/live/livestream-%03d.png':
  Metadata:
    major_brand     : isom
    minor_version   : 512
    compatible_brands: isomiso2avc1mp41
    server_version  : 3.0.160
    server          : SRS/3.0.160(OuXuli)
    encoder         : Lavf58.29.100
    Stream #0:0: Video: png, rgb24, 768x320 [SAR 1:1 DAR 12:5], q=2-31, 200 kb/s, 1 fps, 1 tbn, 1 tbc
    Metadata:
      encoder         : Lavc58.54.100 png
frame=    2 fps=0.0 q=-0.0 size=N/A time=00:00:02.00 bitrate=N/A speed=3.04x    frame=    3 fps=2.2 q=-0.0 size=N/A time=00:00:03.00 bitrate=N/A speed=2.17x    frame=    4 fps=1.9 q=-0.0 size=N/A time=00:00:04.00 bitrate=N/A speed= 1.9x    frame=    4 fps=1.4 q=-0.0 size=N/A time=00:00:04.00 bitrate=N/A speed=1.42x    frame=    5 fps=1.4 q=-0.0 size=N/A time=00:00:05.00 bitrate=N/A speed=1.41x    frame=    6 fps=1.5 q=-0.0 Lsize=N/A time=00:00:06.00 bitrate=N/A speed=1.53x    
video:1110kB audio:0kB subtitle:0kB other streams:0kB global headers:0kB muxing overhead: unknown
ffmpeg version 4.2.1 Copyright (c) 2000-2019 the FFmpeg developers
  built with gcc 4.8.5 (GCC) 20150623 (Red Hat 4.8.5-44)
  configuration: --enable-pthreads --extra-libs=-lpthread --enable-gpl --enable-nonfree --enable-postproc --enable-bzlib --enable-zlib --enable-libx264 --enable-libmp3lame --enable-libfdk-aac --enable-libspeex --enable-libxml2 --enable-demuxer=dash --pkg-config-flags=--static
  libavutil      56. 31.100 / 56. 31.100
  libavcodec     58. 54.100 / 58. 54.100
  libavformat    58. 29.100 / 58. 29.100
  libavdevice    58.  8.100 / 58.  8.100
  libavfilter     7. 57.100 /  7. 57.100
  libswscale      5.  5.100 /  5.  5.100
  libswresample   3.  5.100 /  3.  5.100
  libpostproc    55.  5.100 / 55.  5.100
Input #0, flv, from 'rtmp://127.0.0.1:1935/live?vhost=__defaultVhost__/livestream':
  Metadata:
    major_brand     : isom
    minor_version   : 512
    compatible_brands: isomiso2avc1mp41
    encoder         : Lavf58.29.100
    server          : SRS/3.0.160(OuXuli)
    server_version  : 3.0.160
  Duration: N/A, start: 0.000000, bitrate: 242 kb/s
    Stream #0:0: Data: none
    Stream #0:1: Audio: aac (LC), 44100 Hz, stereo, fltp, 30 kb/s
    Stream #0:2: Video: h264 (High), yuv420p(progressive), 768x320 [SAR 1:1 DAR 12:5], 212 kb/s, 25 fps, 25 tbr, 1k tbn, 50 tbc
Stream mapping:
  Stream #0:2 -> #0:0 (h264 (native) -> png (native))
Press [q] to stop, [?] for help
Output #0, image2, to './objs/nginx/html/live/livestream-%03d.png':
  Metadata:
    major_brand     : isom
    minor_version   : 512
    compatible_brands: isomiso2avc1mp41
    server_version  : 3.0.160
    server          : SRS/3.0.160(OuXuli)
    encoder         : Lavf58.29.100
    Stream #0:0: Video: png, rgb24, 768x320 [SAR 1:1 DAR 12:5], q=2-31, 200 kb/s, 1 fps, 1 tbn, 1 tbc
    Metadata:
      encoder         : Lavc58.54.100 png
frame=    2 fps=0.0 q=-0.0 size=N/A time=00:00:02.00 bitrate=N/A speed=3.01x    frame=    3 fps=2.2 q=-0.0 size=N/A time=00:00:03.00 bitrate=N/A speed=2.16x    frame=    3 fps=1.4 q=-0.0 size=N/A time=00:00:03.00 bitrate=N/A speed=1.42x    frame=    4 fps=1.4 q=-0.0 size=N/A time=00:00:04.00 bitrate=N/A speed=1.41x    frame=    5 fps=1.4 q=-0.0 size=N/A time=00:00:05.00 bitrate=N/A speed=1.41x    frame=    6 fps=1.5 q=-0.0 Lsize=N/A time=00:00:06.00 bitrate=N/A speed=1.52x    
video:1772kB audio:0kB subtitle:0kB other streams:0kB global headers:0kB muxing overhead: unknown
ffmpeg version 4.2.1 Copyright (c) 2000-2019 the FFmpeg developers
  built with gcc 4.8.5 (GCC) 20150623 (Red Hat 4.8.5-44)
  configuration: --enable-pthreads --extra-libs=-lpthread --enable-gpl --enable-nonfree --enable-postproc --enable-bzlib --enable-zlib --enable-libx264 --enable-libmp3lame --enable-libfdk-aac --enable-libspeex --enable-libxml2 --enable-demuxer=dash --pkg-config-flags=--static
  libavutil      56. 31.100 / 56. 31.100
  libavcodec     58. 54.100 / 58. 54.100
  libavformat    58. 29.100 / 58. 29.100
  libavdevice    58.  8.100 / 58.  8.100
  libavfilter     7. 57.100 /  7. 57.100
  libswscale      5.  5.100 /  5.  5.100
  libswresample   3.  5.100 /  3.  5.100
  libpostproc    55.  5.100 / 55.  5.100
Input #0, flv, from 'rtmp://127.0.0.1:1935/live?vhost=__defaultVhost__/livestream':
  Metadata:
    major_brand     : isom
    minor_version   : 512
    compatible_brands: isomiso2avc1mp41
    encoder         : Lavf58.29.100
    server          : SRS/3.0.160(OuXuli)
    server_version  : 3.0.160
  Duration: N/A, start: 0.000000, bitrate: 242 kb/s
    Stream #0:0: Data: none
    Stream #0:1: Audio: aac (LC), 44100 Hz, stereo, fltp, 30 kb/s
    Stream #0:2: Video: h264 (High), yuv420p(progressive), 768x320 [SAR 1:1 DAR 12:5], 212 kb/s, 25 fps, 25 tbr, 1k tbn, 50 tbc
Stream mapping:
  Stream #0:2 -> #0:0 (h264 (native) -> png (native))
Press [q] to stop, [?] for help
Output #0, image2, to './objs/nginx/html/live/livestream-%03d.png':
  Metadata:
    major_brand     : isom
    minor_version   : 512
    compatible_brands: isomiso2avc1mp41
    server_version  : 3.0.160
    server          : SRS/3.0.160(OuXuli)
    encoder         : Lavf58.29.100
    Stream #0:0: Video: png, rgb24, 768x320 [SAR 1:1 DAR 12:5], q=2-31, 200 kb/s, 1 fps, 1 tbn, 1 tbc
    Metadata:
      encoder         : Lavc58.54.100 png
frame=    3 fps=0.0 q=-0.0 size=N/A time=00:00:03.00 bitrate=N/A speed=4.77x    frame=    4 fps=3.0 q=-0.0 size=N/A time=00:00:04.00 bitrate=N/A speed=2.97x    frame=    5 fps=2.4 q=-0.0 size=N/A time=00:00:05.00 bitrate=N/A speed=2.42x    frame=    6 fps=2.4 q=-0.0 Lsize=N/A time=00:00:06.00 bitrate=N/A speed=2.43x    
video:1318kB audio:0kB subtitle:0kB other streams:0kB global headers:0kB muxing overhead: unknown
ffmpeg version 4.2.1 Copyright (c) 2000-2019 the FFmpeg developers
  built with gcc 4.8.5 (GCC) 20150623 (Red Hat 4.8.5-44)
  configuration: --enable-pthreads --extra-libs=-lpthread --enable-gpl --enable-nonfree --enable-postproc --enable-bzlib --enable-zlib --enable-libx264 --enable-libmp3lame --enable-libfdk-aac --enable-libspeex --enable-libxml2 --enable-demuxer=dash --pkg-config-flags=--static
  libavutil      56. 31.100 / 56. 31.100
  libavcodec     58. 54.100 / 58. 54.100
  libavformat    58. 29.100 / 58. 29.100
  libavdevice    58.  8.100 / 58.  8.100
  libavfilter     7. 57.100 /  7. 57.100
  libswscale      5.  5.100 /  5.  5.100
  libswresample   3.  5.100 /  3.  5.100
  libpostproc    55.  5.100 / 55.  5.100
Input #0, flv, from 'rtmp://127.0.0.1:1935/live?vhost=__defaultVhost__/livestream':
  Metadata:
    major_brand     : isom
    minor_version   : 512
    compatible_brands: isomiso2avc1mp41
    encoder         : Lavf58.29.100
    server          : SRS/3.0.160(OuXuli)
    server_version  : 3.0.160
  Duration: N/A, start: 0.000000, bitrate: 242 kb/s
    Stream #0:0: Data: none
    Stream #0:1: Audio: aac (LC), 44100 Hz, stereo, fltp, 30 kb/s
    Stream #0:2: Video: h264 (High), yuv420p(progressive), 768x320 [SAR 1:1 DAR 12:5], 212 kb/s, 25 fps, 25 tbr, 1k tbn, 50 tbc
Stream mapping:
  Stream #0:2 -> #0:0 (h264 (native) -> png (native))
Press [q] to stop, [?] for help
Output #0, image2, to './objs/nginx/html/live/livestream-%03d.png':
  Metadata:
    major_brand     : isom
    minor_version   : 512
    compatible_brands: isomiso2avc1mp41
    server_version  : 3.0.160
    server          : SRS/3.0.160(OuXuli)
    encoder         : Lavf58.29.100
    Stream #0:0: Video: png, rgb24, 768x320 [SAR 1:1 DAR 12:5], q=2-31, 200 kb/s, 1 fps, 1 tbn, 1 tbc
    Metadata:
      encoder         : Lavc58.54.100 png
frame=    2 fps=0.0 q=-0.0 size=N/A time=00:00:02.00 bitrate=N/A speed=   3x    frame=    3 fps=2.2 q=-0.0 size=N/A time=00:00:03.00 bitrate=N/A speed=2.16x    frame=    4 fps=1.9 q=-0.0 size=N/A time=00:00:04.00 bitrate=N/A speed=1.89x    frame=    4 fps=1.4 q=-0.0 size=N/A time=00:00:04.00 bitrate=N/A speed=1.42x    frame=    5 fps=1.4 q=-0.0 size=N/A time=00:00:05.00 bitrate=N/A speed=1.41x    frame=    6 fps=1.5 q=-0.0 Lsize=N/A time=00:00:06.00 bitrate=N/A speed=1.52x    
video:1198kB audio:0kB subtitle:0kB other streams:0kB global headers:0kB muxing overhead: unknown
ffmpeg version 4.2.1 Copyright (c) 2000-2019 the FFmpeg developers
  built with gcc 4.8.5 (GCC) 20150623 (Red Hat 4.8.5-44)
  configuration: --enable-pthreads --extra-libs=-lpthread --enable-gpl --enable-nonfree --enable-postproc --enable-bzlib --enable-zlib --enable-libx264 --enable-libmp3lame --enable-libfdk-aac --enable-libspeex --enable-libxml2 --enable-demuxer=dash --pkg-config-flags=--static
  libavutil      56. 31.100 / 56. 31.100
  libavcodec     58. 54.100 / 58. 54.100
  libavformat    58. 29.100 / 58. 29.100
  libavdevice    58.  8.100 / 58.  8.100
  libavfilter     7. 57.100 /  7. 57.100
  libswscale      5.  5.100 /  5.  5.100
  libswresample   3.  5.100 /  3.  5.100
  libpostproc    55.  5.100 / 55.  5.100
Input #0, flv, from 'rtmp://127.0.0.1:1935/live?vhost=__defaultVhost__/livestream':
  Metadata:
    major_brand     : isom
    minor_version   : 512
    compatible_brands: isomiso2avc1mp41
    encoder         : Lavf58.29.100
    server          : SRS/3.0.160(OuXuli)
    server_version  : 3.0.160
  Duration: N/A, start: 0.000000, bitrate: 242 kb/s
    Stream #0:0: Data: none
    Stream #0:1: Audio: aac (LC), 44100 Hz, stereo, fltp, 30 kb/s
    Stream #0:2: Video: h264 (High), yuv420p(progressive), 768x320 [SAR 1:1 DAR 12:5], 212 kb/s, 25 fps, 25 tbr, 1k tbn, 50 tbc
Stream mapping:
  Stream #0:2 -> #0:0 (h264 (native) -> png (native))
Press [q] to stop, [?] for help
Output #0, image2, to './objs/nginx/html/live/livestream-%03d.png':
  Metadata:
    major_brand     : isom
    minor_version   : 512
    compatible_brands: isomiso2avc1mp41
    server_version  : 3.0.160
    server          : SRS/3.0.160(OuXuli)
    encoder         : Lavf58.29.100
    Stream #0:0: Video: png, rgb24, 768x320 [SAR 1:1 DAR 12:5], q=2-31, 200 kb/s, 1 fps, 1 tbn, 1 tbc
    Metadata:
      encoder         : Lavc58.54.100 png
frame=    2 fps=0.0 q=-0.0 size=N/A time=00:00:02.00 bitrate=N/A speed=3.01x    frame=    3 fps=2.2 q=-0.0 size=N/A time=00:00:03.00 bitrate=N/A speed=2.17x    frame=    4 fps=1.9 q=-0.0 size=N/A time=00:00:04.00 bitrate=N/A speed= 1.9x    frame=    4 fps=1.4 q=-0.0 size=N/A time=00:00:04.00 bitrate=N/A speed=1.41x    frame=    5 fps=1.4 q=-0.0 size=N/A time=00:00:05.00 bitrate=N/A speed=1.41x    frame=    6 fps=1.5 q=-0.0 Lsize=N/A time=00:00:06.00 bitrate=N/A speed=1.53x    
video:1260kB audio:0kB subtitle:0kB other streams:0kB global headers:0kB muxing overhead: unknown
ffmpeg version 4.2.1 Copyright (c) 2000-2019 the FFmpeg developers
  built with gcc 4.8.5 (GCC) 20150623 (Red Hat 4.8.5-44)
  configuration: --enable-pthreads --extra-libs=-lpthread --enable-gpl --enable-nonfree --enable-postproc --enable-bzlib --enable-zlib --enable-libx264 --enable-libmp3lame --enable-libfdk-aac --enable-libspeex --enable-libxml2 --enable-demuxer=dash --pkg-config-flags=--static
  libavutil      56. 31.100 / 56. 31.100
  libavcodec     58. 54.100 / 58. 54.100
  libavformat    58. 29.100 / 58. 29.100
  libavdevice    58.  8.100 / 58.  8.100
  libavfilter     7. 57.100 /  7. 57.100
  libswscale      5.  5.100 /  5.  5.100
  libswresample   3.  5.100 /  3.  5.100
  libpostproc    55.  5.100 / 55.  5.100
Input #0, flv, from 'rtmp://127.0.0.1:1935/live?vhost=__defaultVhost__/livestream':
  Metadata:
    major_brand     : isom
    minor_version   : 512
    compatible_brands: isomiso2avc1mp41
    encoder         : Lavf58.29.100
    server          : SRS/3.0.160(OuXuli)
    server_version  : 3.0.160
  Duration: N/A, start: 0.000000, bitrate: 242 kb/s
    Stream #0:0: Data: none
    Stream #0:1: Audio: aac (LC), 44100 Hz, stereo, fltp, 30 kb/s
    Stream #0:2: Video: h264 (High), yuv420p(progressive), 768x320 [SAR 1:1 DAR 12:5], 212 kb/s, 25 fps, 25 tbr, 1k tbn, 50 tbc
Stream mapping:
  Stream #0:2 -> #0:0 (h264 (native) -> png (native))
Press [q] to stop, [?] for help
Output #0, image2, to './objs/nginx/html/live/livestream-%03d.png':
  Metadata:
    major_brand     : isom
    minor_version   : 512
    compatible_brands: isomiso2avc1mp41
    server_version  : 3.0.160
    server          : SRS/3.0.160(OuXuli)
    encoder         : Lavf58.29.100
    Stream #0:0: Video: png, rgb24, 768x320 [SAR 1:1 DAR 12:5], q=2-31, 200 kb/s, 1 fps, 1 tbn, 1 tbc
    Metadata:
      encoder         : Lavc58.54.100 png
frame=    2 fps=0.0 q=-0.0 size=N/A time=00:00:02.00 bitrate=N/A speed=3.25x    frame=    3 fps=2.3 q=-0.0 size=N/A time=00:00:03.00 bitrate=N/A speed=2.25x    frame=    3 fps=1.5 q=-0.0 size=N/A time=00:00:03.00 bitrate=N/A speed=1.46x    frame=    4 fps=1.4 q=-0.0 size=N/A time=00:00:04.00 bitrate=N/A speed=1.44x    frame=    5 fps=1.4 q=-0.0 size=N/A time=00:00:05.00 bitrate=N/A speed=1.43x    frame=    6 fps=1.4 q=-0.0 Lsize=N/A time=00:00:06.00 bitrate=N/A speed=1.41x    
video:1357kB audio:0kB subtitle:0kB other streams:0kB global headers:0kB muxing overhead: unknown
ffmpeg version 4.2.1 Copyright (c) 2000-2019 the FFmpeg developers
  built with gcc 4.8.5 (GCC) 20150623 (Red Hat 4.8.5-44)
  configuration: --enable-pthreads --extra-libs=-lpthread --enable-gpl --enable-nonfree --enable-postproc --enable-bzlib --enable-zlib --enable-libx264 --enable-libmp3lame --enable-libfdk-aac --enable-libspeex --enable-libxml2 --enable-demuxer=dash --pkg-config-flags=--static
  libavutil      56. 31.100 / 56. 31.100
  libavcodec     58. 54.100 / 58. 54.100
  libavformat    58. 29.100 / 58. 29.100
  libavdevice    58.  8.100 / 58.  8.100
  libavfilter     7. 57.100 /  7. 57.100
  libswscale      5.  5.100 /  5.  5.100
  libswresample   3.  5.100 /  3.  5.100
  libpostproc    55.  5.100 / 55.  5.100
Input #0, flv, from 'rtmp://127.0.0.1:1935/live?vhost=__defaultVhost__/livestream':
  Metadata:
    major_brand     : isom
    minor_version   : 512
    compatible_brands: isomiso2avc1mp41
    encoder         : Lavf58.29.100
    server          : SRS/3.0.160(OuXuli)
    server_version  : 3.0.160
  Duration: N/A, start: 0.000000, bitrate: 242 kb/s
    Stream #0:0: Data: none
    Stream #0:1: Audio: aac (LC), 44100 Hz, stereo, fltp, 30 kb/s
    Stream #0:2: Video: h264 (High), yuv420p(progressive), 768x320 [SAR 1:1 DAR 12:5], 212 kb/s, 25 fps, 25 tbr, 1k tbn, 50 tbc
Stream mapping:
  Stream #0:2 -> #0:0 (h264 (native) -> png (native))
Press [q] to stop, [?] for help
Output #0, image2, to './objs/nginx/html/live/livestream-%03d.png':
  Metadata:
    major_brand     : isom
    minor_version   : 512
    compatible_brands: isomiso2avc1mp41
    server_version  : 3.0.160
    server          : SRS/3.0.160(OuXuli)
    encoder         : Lavf58.29.100
    Stream #0:0: Video: png, rgb24, 768x320 [SAR 1:1 DAR 12:5], q=2-31, 200 kb/s, 1 fps, 1 tbn, 1 tbc
    Metadata:
      encoder         : Lavc58.54.100 png
frame=    2 fps=0.0 q=-0.0 size=N/A time=00:00:02.00 bitrate=N/A speed=3.04x    frame=    3 fps=2.2 q=-0.0 size=N/A time=00:00:03.00 bitrate=N/A speed=2.18x    frame=    3 fps=1.4 q=-0.0 size=N/A time=00:00:03.00 bitrate=N/A speed=1.43x    frame=    4 fps=1.4 q=-0.0 size=N/A time=00:00:04.00 bitrate=N/A speed=1.42x    frame=    5 fps=1.4 q=-0.0 size=N/A time=00:00:05.00 bitrate=N/A speed=1.41x    frame=    6 fps=1.5 q=-0.0 Lsize=N/A time=00:00:06.00 bitrate=N/A speed=1.52x    
video:1167kB audio:0kB subtitle:0kB other streams:0kB global headers:0kB muxing overhead: unknown
ffmpeg version 4.2.1 Copyright (c) 2000-2019 the FFmpeg developers
  built with gcc 4.8.5 (GCC) 20150623 (Red Hat 4.8.5-44)
  configuration: --enable-pthreads --extra-libs=-lpthread --enable-gpl --enable-nonfree --enable-postproc --enable-bzlib --enable-zlib --enable-libx264 --enable-libmp3lame --enable-libfdk-aac --enable-libspeex --enable-libxml2 --enable-demuxer=dash --pkg-config-flags=--static
  libavutil      56. 31.100 / 56. 31.100
  libavcodec     58. 54.100 / 58. 54.100
  libavformat    58. 29.100 / 58. 29.100
  libavdevice    58.  8.100 / 58.  8.100
  libavfilter     7. 57.100 /  7. 57.100
  libswscale      5.  5.100 /  5.  5.100
  libswresample   3.  5.100 /  3.  5.100
  libpostproc    55.  5.100 / 55.  5.100
Input #0, flv, from 'rtmp://127.0.0.1:1935/live?vhost=__defaultVhost__/livestream':
  Metadata:
    major_brand     : isom
    minor_version   : 512
    compatible_brands: isomiso2avc1mp41
    encoder         : Lavf58.29.100
    server          : SRS/3.0.160(OuXuli)
    server_version  : 3.0.160
  Duration: N/A, start: 0.000000, bitrate: 242 kb/s
    Stream #0:0: Data: none
    Stream #0:1: Audio: aac (LC), 44100 Hz, stereo, fltp, 30 kb/s
    Stream #0:2: Video: h264 (High), yuv420p(progressive), 768x320 [SAR 1:1 DAR 12:5], 212 kb/s, 25 fps, 25 tbr, 1k tbn, 50 tbc
Stream mapping:
  Stream #0:2 -> #0:0 (h264 (native) -> png (native))
Press [q] to stop, [?] for help
Output #0, image2, to './objs/nginx/html/live/livestream-%03d.png':
  Metadata:
    major_brand     : isom
    minor_version   : 512
    compatible_brands: isomiso2avc1mp41
    server_version  : 3.0.160
    server          : SRS/3.0.160(OuXuli)
    encoder         : Lavf58.29.100
    Stream #0:0: Video: png, rgb24, 768x320 [SAR 1:1 DAR 12:5], q=2-31, 200 kb/s, 1 fps, 1 tbn, 1 tbc
    Metadata:
      encoder         : Lavc58.54.100 png
frame=    2 fps=0.0 q=-0.0 size=N/A time=00:00:02.00 bitrate=N/A speed=2.97x    frame=    3 fps=2.2 q=-0.0 size=N/A time=00:00:03.00 bitrate=N/A speed=2.16x    frame=    3 fps=1.4 q=-0.0 size=N/A time=00:00:03.00 bitrate=N/A speed=1.43x    frame=    4 fps=1.4 q=-0.0 size=N/A time=00:00:04.00 bitrate=N/A speed=1.42x    frame=    5 fps=1.4 q=-0.0 size=N/A time=00:00:05.00 bitrate=N/A speed=1.41x    frame=    6 fps=1.4 q=-0.0 size=N/A time=00:00:06.00 bitrate=N/A speed=1.41x    frame=    6 fps=1.4 q=-0.0 Lsize=N/A time=00:00:06.00 bitrate=N/A speed= 1.4x    
video:1632kB audio:0kB subtitle:0kB other streams:0kB global headers:0kB muxing overhead: unknown
ffmpeg version 4.2.1 Copyright (c) 2000-2019 the FFmpeg developers
  built with gcc 4.8.5 (GCC) 20150623 (Red Hat 4.8.5-44)
  configuration: --enable-pthreads --extra-libs=-lpthread --enable-gpl --enable-nonfree --enable-postproc --enable-bzlib --enable-zlib --enable-libx264 --enable-libmp3lame --enable-libfdk-aac --enable-libspeex --enable-libxml2 --enable-demuxer=dash --pkg-config-flags=--static
  libavutil      56. 31.100 / 56. 31.100
  libavcodec     58. 54.100 / 58. 54.100
  libavformat    58. 29.100 / 58. 29.100
  libavdevice    58.  8.100 / 58.  8.100
  libavfilter     7. 57.100 /  7. 57.100
  libswscale      5.  5.100 /  5.  5.100
  libswresample   3.  5.100 /  3.  5.100
  libpostproc    55.  5.100 / 55.  5.100
Input #0, flv, from 'rtmp://127.0.0.1:1935/live?vhost=__defaultVhost__/livestream':
  Metadata:
    major_brand     : isom
    minor_version   : 512
    compatible_brands: isomiso2avc1mp41
    encoder         : Lavf58.29.100
    server          : SRS/3.0.160(OuXuli)
    server_version  : 3.0.160
  Duration: N/A, start: 0.000000, bitrate: 242 kb/s
    Stream #0:0: Data: none
    Stream #0:1: Audio: aac (LC), 44100 Hz, stereo, fltp, 30 kb/s
    Stream #0:2: Video: h264 (High), yuv420p(progressive), 768x320 [SAR 1:1 DAR 12:5], 212 kb/s, 25 fps, 25 tbr, 1k tbn, 50 tbc
Stream mapping:
  Stream #0:2 -> #0:0 (h264 (native) -> png (native))
Press [q] to stop, [?] for help
Output #0, image2, to './objs/nginx/html/live/livestream-%03d.png':
  Metadata:
    major_brand     : isom
    minor_version   : 512
    compatible_brands: isomiso2avc1mp41
    server_version  : 3.0.160
    server          : SRS/3.0.160(OuXuli)
    encoder         : Lavf58.29.100
    Stream #0:0: Video: png, rgb24, 768x320 [SAR 1:1 DAR 12:5], q=2-31, 200 kb/s, 1 fps, 1 tbn, 1 tbc
    Metadata:
      encoder         : Lavc58.54.100 png
frame=    2 fps=0.0 q=-0.0 size=N/A time=00:00:02.00 bitrate=N/A speed=2.91x    frame=    3 fps=2.1 q=-0.0 size=N/A time=00:00:03.00 bitrate=N/A speed=2.14x    frame=    4 fps=1.9 q=-0.0 size=N/A time=00:00:04.00 bitrate=N/A speed=1.88x    frame=    4 fps=1.4 q=-0.0 size=N/A time=00:00:04.00 bitrate=N/A speed=1.41x    frame=    5 fps=1.4 q=-0.0 size=N/A time=00:00:05.00 bitrate=N/A speed= 1.4x    frame=    6 fps=1.5 q=-0.0 Lsize=N/A time=00:00:06.00 bitrate=N/A speed=1.51x    
video:1301kB audio:0kB subtitle:0kB other streams:0kB global headers:0kB muxing overhead: unknown
ffmpeg version 4.2.1 Copyright (c) 2000-2019 the FFmpeg developers
  built with gcc 4.8.5 (GCC) 20150623 (Red Hat 4.8.5-44)
  configuration: --enable-pthreads --extra-libs=-lpthread --enable-gpl --enable-nonfree --enable-postproc --enable-bzlib --enable-zlib --enable-libx264 --enable-libmp3lame --enable-libfdk-aac --enable-libspeex --enable-libxml2 --enable-demuxer=dash --pkg-config-flags=--static
  libavutil      56. 31.100 / 56. 31.100
  libavcodec     58. 54.100 / 58. 54.100
  libavformat    58. 29.100 / 58. 29.100
  libavdevice    58.  8.100 / 58.  8.100
  libavfilter     7. 57.100 /  7. 57.100
  libswscale      5.  5.100 /  5.  5.100
  libswresample   3.  5.100 /  3.  5.100
  libpostproc    55.  5.100 / 55.  5.100
Input #0, flv, from 'rtmp://127.0.0.1:1935/live?vhost=__defaultVhost__/livestream':
  Metadata:
    major_brand     : isom
    minor_version   : 512
    compatible_brands: isomiso2avc1mp41
    encoder         : Lavf58.29.100
    server          : SRS/3.0.160(OuXuli)
    server_version  : 3.0.160
  Duration: N/A, start: 0.000000, bitrate: 242 kb/s
    Stream #0:0: Data: none
    Stream #0:1: Audio: aac (LC), 44100 Hz, stereo, fltp, 30 kb/s
    Stream #0:2: Video: h264 (High), yuv420p(progressive), 768x320 [SAR 1:1 DAR 12:5], 212 kb/s, 25 fps, 25 tbr, 1k tbn, 50 tbc
Stream mapping:
  Stream #0:2 -> #0:0 (h264 (native) -> png (native))
Press [q] to stop, [?] for help
Output #0, image2, to './objs/nginx/html/live/livestream-%03d.png':
  Metadata:
    major_brand     : isom
    minor_version   : 512
    compatible_brands: isomiso2avc1mp41
    server_version  : 3.0.160
    server          : SRS/3.0.160(OuXuli)
    encoder         : Lavf58.29.100
    Stream #0:0: Video: png, rgb24, 768x320 [SAR 1:1 DAR 12:5], q=2-31, 200 kb/s, 1 fps, 1 tbn, 1 tbc
    Metadata:
      encoder         : Lavc58.54.100 png
frame=    2 fps=0.0 q=-0.0 size=N/A time=00:00:02.00 bitrate=N/A speed=2.98x    frame=    3 fps=2.2 q=-0.0 size=N/A time=00:00:03.00 bitrate=N/A speed=2.15x    frame=    3 fps=1.7 q=-0.0 Lsize=N/A time=00:00:03.00 bitrate=N/A speed=1.69x    
video:144kB audio:0kB subtitle:0kB other streams:0kB global headers:0kB muxing overhead: unknown
Exiting normally, received signal 15.
ffmpeg version 4.2.1 Copyright (c) 2000-2019 the FFmpeg developers
  built with gcc 4.8.5 (GCC) 20150623 (Red Hat 4.8.5-44)
  configuration: --enable-pthreads --extra-libs=-lpthread --enable-gpl --enable-nonfree --enable-postproc --enable-bzlib --enable-zlib --enable-libx264 --enable-libmp3lame --enable-libfdk-aac --enable-libspeex --enable-libxml2 --enable-demuxer=dash --pkg-config-flags=--static
  libavutil      56. 31.100 / 56. 31.100
  libavcodec     58. 54.100 / 58. 54.100
  libavformat    58. 29.100 / 58. 29.100
  libavdevice    58.  8.100 / 58.  8.100
  libavfilter     7. 57.100 /  7. 57.100
  libswscale      5.  5.100 /  5.  5.100
  libswresample   3.  5.100 /  3.  5.100
  libpostproc    55.  5.100 / 55.  5.100
Input #0, flv, from 'rtmp://127.0.0.1:1935/live?vhost=__defaultVhost__/livestream':
  Metadata:
    major_brand     : isom
    minor_version   : 512
    compatible_brands: isomiso2avc1mp41
    encoder         : Lavf58.29.100
    server          : SRS/3.0.160(OuXuli)
    server_version  : 3.0.160
  Duration: N/A, start: 0.000000, bitrate: 242 kb/s
    Stream #0:0: Data: none
    Stream #0:1: Audio: aac (LC), 44100 Hz, stereo, fltp, 30 kb/s
    Stream #0:2: Video: h264 (High), yuv420p(progressive), 768x320 [SAR 1:1 DAR 12:5], 212 kb/s, 25 fps, 25 tbr, 1k tbn, 50 tbc
Stream mapping:
  Stream #0:2 -> #0:0 (h264 (native) -> png (native))
Press [q] to stop, [?] for help
Output #0, image2, to './objs/nginx/html/live/livestream-%03d.png':
  Metadata:
    major_brand     : isom
    minor_version   : 512
    compatible_brands: isomiso2avc1mp41
    server_version  : 3.0.160
    server          : SRS/3.0.160(OuXuli)
    encoder         : Lavf58.29.100
    Stream #0:0: Video: png, rgb24, 768x320 [SAR 1:1 DAR 12:5], q=2-31, 200 kb/s, 1 fps, 1 tbn, 1 tbc
    Metadata:
      encoder         : Lavc58.54.100 png
frame=    2 fps=0.0 q=-0.0 size=N/A time=00:00:02.00 bitrate=N/A speed=2.99x    frame=    3 fps=2.2 q=-0.0 size=N/A time=00:00:03.00 bitrate=N/A speed=2.17x    frame=    3 fps=1.4 q=-0.0 size=N/A time=00:00:03.00 bitrate=N/A speed=1.42x    frame=    4 fps=1.4 q=-0.0 size=N/A time=00:00:04.00 bitrate=N/A speed=1.42x    frame=    5 fps=1.4 q=-0.0 size=N/A time=00:00:05.00 bitrate=N/A speed=1.41x    frame=    6 fps=1.4 q=-0.0 Lsize=N/A time=00:00:06.00 bitrate=N/A speed= 1.4x    
video:441kB audio:0kB subtitle:0kB other streams:0kB global headers:0kB muxing overhead: unknown
ffmpeg version 4.2.1 Copyright (c) 2000-2019 the FFmpeg developers
  built with gcc 4.8.5 (GCC) 20150623 (Red Hat 4.8.5-44)
  configuration: --enable-pthreads --extra-libs=-lpthread --enable-gpl --enable-nonfree --enable-postproc --enable-bzlib --enable-zlib --enable-libx264 --enable-libmp3lame --enable-libfdk-aac --enable-libspeex --enable-libxml2 --enable-demuxer=dash --pkg-config-flags=--static
  libavutil      56. 31.100 / 56. 31.100
  libavcodec     58. 54.100 / 58. 54.100
  libavformat    58. 29.100 / 58. 29.100
  libavdevice    58.  8.100 / 58.  8.100
  libavfilter     7. 57.100 /  7. 57.100
  libswscale      5.  5.100 /  5.  5.100
  libswresample   3.  5.100 /  3.  5.100
  libpostproc    55.  5.100 / 55.  5.100
Input #0, flv, from 'rtmp://127.0.0.1:1935/live?vhost=__defaultVhost__/livestream':
  Metadata:
    major_brand     : isom
    minor_version   : 512
    compatible_brands: isomiso2avc1mp41
    encoder         : Lavf58.29.100
    server          : SRS/3.0.160(OuXuli)
    server_version  : 3.0.160
  Duration: N/A, start: 0.000000, bitrate: 242 kb/s
    Stream #0:0: Data: none
    Stream #0:1: Audio: aac (LC), 44100 Hz, stereo, fltp, 30 kb/s
    Stream #0:2: Video: h264 (High), yuv420p(progressive), 768x320 [SAR 1:1 DAR 12:5], 212 kb/s, 25 fps, 25 tbr, 1k tbn, 50 tbc
Stream mapping:
  Stream #0:2 -> #0:0 (h264 (native) -> png (native))
Press [q] to stop, [?] for help
Output #0, image2, to './objs/nginx/html/live/livestream-%03d.png':
  Metadata:
    major_brand     : isom
    minor_version   : 512
    compatible_brands: isomiso2avc1mp41
    server_version  : 3.0.160
    server          : SRS/3.0.160(OuXuli)
    encoder         : Lavf58.29.100
    Stream #0:0: Video: png, rgb24, 768x320 [SAR 1:1 DAR 12:5], q=2-31, 200 kb/s, 1 fps, 1 tbn, 1 tbc
    Metadata:
      encoder         : Lavc58.54.100 png
frame=    2 fps=0.0 q=-0.0 size=N/A time=00:00:02.00 bitrate=N/A speed=3.03x    frame=    3 fps=2.2 q=-0.0 size=N/A time=00:00:03.00 bitrate=N/A speed=2.17x    frame=    4 fps=1.9 q=-0.0 size=N/A time=00:00:04.00 bitrate=N/A speed=1.91x    frame=    4 fps=1.4 q=-0.0 size=N/A time=00:00:04.00 bitrate=N/A speed=1.42x    frame=    5 fps=1.4 q=-0.0 size=N/A time=00:00:05.00 bitrate=N/A speed=1.41x    frame=    6 fps=1.5 q=-0.0 Lsize=N/A time=00:00:06.00 bitrate=N/A speed=1.53x    
video:1135kB audio:0kB subtitle:0kB other streams:0kB global headers:0kB muxing overhead: unknown
ffmpeg version 4.2.1 Copyright (c) 2000-2019 the FFmpeg developers
  built with gcc 4.8.5 (GCC) 20150623 (Red Hat 4.8.5-44)
  configuration: --enable-pthreads --extra-libs=-lpthread --enable-gpl --enable-nonfree --enable-postproc --enable-bzlib --enable-zlib --enable-libx264 --enable-libmp3lame --enable-libfdk-aac --enable-libspeex --enable-libxml2 --enable-demuxer=dash --pkg-config-flags=--static
  libavutil      56. 31.100 / 56. 31.100
  libavcodec     58. 54.100 / 58. 54.100
  libavformat    58. 29.100 / 58. 29.100
  libavdevice    58.  8.100 / 58.  8.100
  libavfilter     7. 57.100 /  7. 57.100
  libswscale      5.  5.100 /  5.  5.100
  libswresample   3.  5.100 /  3.  5.100
  libpostproc    55.  5.100 / 55.  5.100
Input #0, flv, from 'rtmp://127.0.0.1:1935/live?vhost=__defaultVhost__/livestream':
  Metadata:
    major_brand     : isom
    minor_version   : 512
    compatible_brands: isomiso2avc1mp41
    encoder         : Lavf58.29.100
    server          : SRS/3.0.160(OuXuli)
    server_version  : 3.0.160
  Duration: N/A, start: 0.000000, bitrate: 242 kb/s
    Stream #0:0: Data: none
    Stream #0:1: Audio: aac (LC), 44100 Hz, stereo, fltp, 30 kb/s
    Stream #0:2: Video: h264 (High), yuv420p(progressive), 768x320 [SAR 1:1 DAR 12:5], 212 kb/s, 25 fps, 25 tbr, 1k tbn, 50 tbc
Stream mapping:
  Stream #0:2 -> #0:0 (h264 (native) -> png (native))
Press [q] to stop, [?] for help
Output #0, image2, to './objs/nginx/html/live/livestream-%03d.png':
  Metadata:
    major_brand     : isom
    minor_version   : 512
    compatible_brands: isomiso2avc1mp41
    server_version  : 3.0.160
    server          : SRS/3.0.160(OuXuli)
    encoder         : Lavf58.29.100
    Stream #0:0: Video: png, rgb24, 768x320 [SAR 1:1 DAR 12:5], q=2-31, 200 kb/s, 1 fps, 1 tbn, 1 tbc
    Metadata:
      encoder         : Lavc58.54.100 png
frame=    2 fps=0.0 q=-0.0 size=N/A time=00:00:02.00 bitrate=N/A speed= 3.1x    frame=    3 fps=2.2 q=-0.0 size=N/A time=00:00:03.00 bitrate=N/A speed=2.21x    frame=    4 fps=1.9 q=-0.0 size=N/A time=00:00:04.00 bitrate=N/A speed=1.93x    frame=    4 fps=1.4 q=-0.0 size=N/A time=00:00:04.00 bitrate=N/A speed=1.43x    frame=    5 fps=1.4 q=-0.0 size=N/A time=00:00:05.00 bitrate=N/A speed=1.42x    frame=    6 fps=1.5 q=-0.0 Lsize=N/A time=00:00:06.00 bitrate=N/A speed=1.53x    
video:695kB audio:0kB subtitle:0kB other streams:0kB global headers:0kB muxing overhead: unknown
ffmpeg version 4.2.1 Copyright (c) 2000-2019 the FFmpeg developers
  built with gcc 4.8.5 (GCC) 20150623 (Red Hat 4.8.5-44)
  configuration: --enable-pthreads --extra-libs=-lpthread --enable-gpl --enable-nonfree --enable-postproc --enable-bzlib --enable-zlib --enable-libx264 --enable-libmp3lame --enable-libfdk-aac --enable-libspeex --enable-libxml2 --enable-demuxer=dash --pkg-config-flags=--static
  libavutil      56. 31.100 / 56. 31.100
  libavcodec     58. 54.100 / 58. 54.100
  libavformat    58. 29.100 / 58. 29.100
  libavdevice    58.  8.100 / 58.  8.100
  libavfilter     7. 57.100 /  7. 57.100
  libswscale      5.  5.100 /  5.  5.100
  libswresample   3.  5.100 /  3.  5.100
  libpostproc    55.  5.100 / 55.  5.100
Input #0, flv, from 'rtmp://127.0.0.1:1935/live?vhost=__defaultVhost__/livestream':
  Metadata:
    major_brand     : isom
    minor_version   : 512
    compatible_brands: isomiso2avc1mp41
    encoder         : Lavf58.29.100
    server          : SRS/3.0.160(OuXuli)
    server_version  : 3.0.160
  Duration: N/A, start: 0.000000, bitrate: 242 kb/s
    Stream #0:0: Data: none
    Stream #0:1: Audio: aac (LC), 44100 Hz, stereo, fltp, 30 kb/s
    Stream #0:2: Video: h264 (High), yuv420p(progressive), 768x320 [SAR 1:1 DAR 12:5], 212 kb/s, 25 fps, 25 tbr, 1k tbn, 50 tbc
Stream mapping:
  Stream #0:2 -> #0:0 (h264 (native) -> png (native))
Press [q] to stop, [?] for help
Output #0, image2, to './objs/nginx/html/live/livestream-%03d.png':
  Metadata:
    major_brand     : isom
    minor_version   : 512
    compatible_brands: isomiso2avc1mp41
    server_version  : 3.0.160
    server          : SRS/3.0.160(OuXuli)
    encoder         : Lavf58.29.100
    Stream #0:0: Video: png, rgb24, 768x320 [SAR 1:1 DAR 12:5], q=2-31, 200 kb/s, 1 fps, 1 tbn, 1 tbc
    Metadata:
      encoder         : Lavc58.54.100 png
frame=    2 fps=0.0 q=-0.0 size=N/A time=00:00:02.00 bitrate=N/A speed=3.04x    frame=    3 fps=2.2 q=-0.0 size=N/A time=00:00:03.00 bitrate=N/A speed=2.18x    frame=    4 fps=1.9 q=-0.0 size=N/A time=00:00:04.00 bitrate=N/A speed=1.91x    frame=    4 fps=1.4 q=-0.0 size=N/A time=00:00:04.00 bitrate=N/A speed=1.42x    frame=    5 fps=1.4 q=-0.0 size=N/A time=00:00:05.00 bitrate=N/A speed=1.42x    frame=    6 fps=1.5 q=-0.0 Lsize=N/A time=00:00:06.00 bitrate=N/A speed=1.52x    
video:1282kB audio:0kB subtitle:0kB other streams:0kB global headers:0kB muxing overhead: unknown
ffmpeg version 4.2.1 Copyright (c) 2000-2019 the FFmpeg developers
  built with gcc 4.8.5 (GCC) 20150623 (Red Hat 4.8.5-44)
  configuration: --enable-pthreads --extra-libs=-lpthread --enable-gpl --enable-nonfree --enable-postproc --enable-bzlib --enable-zlib --enable-libx264 --enable-libmp3lame --enable-libfdk-aac --enable-libspeex --enable-libxml2 --enable-demuxer=dash --pkg-config-flags=--static
  libavutil      56. 31.100 / 56. 31.100
  libavcodec     58. 54.100 / 58. 54.100
  libavformat    58. 29.100 / 58. 29.100
  libavdevice    58.  8.100 / 58.  8.100
  libavfilter     7. 57.100 /  7. 57.100
  libswscale      5.  5.100 /  5.  5.100
  libswresample   3.  5.100 /  3.  5.100
  libpostproc    55.  5.100 / 55.  5.100
Input #0, flv, from 'rtmp://127.0.0.1:1935/live?vhost=__defaultVhost__/livestream':
  Metadata:
    major_brand     : isom
    minor_version   : 512
    compatible_brands: isomiso2avc1mp41
    encoder         : Lavf58.29.100
    server          : SRS/3.0.160(OuXuli)
    server_version  : 3.0.160
  Duration: N/A, start: 0.000000, bitrate: 242 kb/s
    Stream #0:0: Data: none
    Stream #0:1: Audio: aac (LC), 44100 Hz, stereo, fltp, 30 kb/s
    Stream #0:2: Video: h264 (High), yuv420p(progressive), 768x320 [SAR 1:1 DAR 12:5], 212 kb/s, 25 fps, 25 tbr, 1k tbn, 50 tbc
Stream mapping:
  Stream #0:2 -> #0:0 (h264 (native) -> png (native))
Press [q] to stop, [?] for help
Output #0, image2, to './objs/nginx/html/live/livestream-%03d.png':
  Metadata:
    major_brand     : isom
    minor_version   : 512
    compatible_brands: isomiso2avc1mp41
    server_version  : 3.0.160
    server          : SRS/3.0.160(OuXuli)
    encoder         : Lavf58.29.100
    Stream #0:0: Video: png, rgb24, 768x320 [SAR 1:1 DAR 12:5], q=2-31, 200 kb/s, 1 fps, 1 tbn, 1 tbc
    Metadata:
      encoder         : Lavc58.54.100 png
frame=    3 fps=0.0 q=-0.0 size=N/A time=00:00:03.00 bitrate=N/A speed=4.66x    frame=    4 fps=2.9 q=-0.0 size=N/A time=00:00:04.00 bitrate=N/A speed=2.92x    frame=    5 fps=2.4 q=-0.0 size=N/A time=00:00:05.00 bitrate=N/A speed= 2.4x    frame=    6 fps=2.4 q=-0.0 Lsize=N/A time=00:00:06.00 bitrate=N/A speed=2.41x    
video:1054kB audio:0kB subtitle:0kB other streams:0kB global headers:0kB muxing overhead: unknown
ffmpeg version 4.2.1 Copyright (c) 2000-2019 the FFmpeg developers
  built with gcc 4.8.5 (GCC) 20150623 (Red Hat 4.8.5-44)
  configuration: --enable-pthreads --extra-libs=-lpthread --enable-gpl --enable-nonfree --enable-postproc --enable-bzlib --enable-zlib --enable-libx264 --enable-libmp3lame --enable-libfdk-aac --enable-libspeex --enable-libxml2 --enable-demuxer=dash --pkg-config-flags=--static
  libavutil      56. 31.100 / 56. 31.100
  libavcodec     58. 54.100 / 58. 54.100
  libavformat    58. 29.100 / 58. 29.100
  libavdevice    58.  8.100 / 58.  8.100
  libavfilter     7. 57.100 /  7. 57.100
  libswscale      5.  5.100 /  5.  5.100
  libswresample   3.  5.100 /  3.  5.100
  libpostproc    55.  5.100 / 55.  5.100
Input #0, flv, from 'rtmp://127.0.0.1:1935/live?vhost=__defaultVhost__/livestream':
  Metadata:
    major_brand     : isom
    minor_version   : 512
    compatible_brands: isomiso2avc1mp41
    encoder         : Lavf58.29.100
    server          : SRS/3.0.160(OuXuli)
    server_version  : 3.0.160
  Duration: N/A, start: 0.000000, bitrate: 242 kb/s
    Stream #0:0: Data: none
    Stream #0:1: Audio: aac (LC), 44100 Hz, stereo, fltp, 30 kb/s
    Stream #0:2: Video: h264 (High), yuv420p(progressive), 768x320 [SAR 1:1 DAR 12:5], 212 kb/s, 25 fps, 25 tbr, 1k tbn, 50 tbc
Stream mapping:
  Stream #0:2 -> #0:0 (h264 (native) -> png (native))
Press [q] to stop, [?] for help
Output #0, image2, to './objs/nginx/html/live/livestream-%03d.png':
  Metadata:
    major_brand     : isom
    minor_version   : 512
    compatible_brands: isomiso2avc1mp41
    server_version  : 3.0.160
    server          : SRS/3.0.160(OuXuli)
    encoder         : Lavf58.29.100
    Stream #0:0: Video: png, rgb24, 768x320 [SAR 1:1 DAR 12:5], q=2-31, 200 kb/s, 1 fps, 1 tbn, 1 tbc
    Metadata:
      encoder         : Lavc58.54.100 png
frame=    2 fps=0.0 q=-0.0 size=N/A time=00:00:02.00 bitrate=N/A speed=2.98x    frame=    3 fps=2.2 q=-0.0 size=N/A time=00:00:03.00 bitrate=N/A speed=2.16x    frame=    4 fps=1.9 q=-0.0 size=N/A time=00:00:04.00 bitrate=N/A speed=1.89x    frame=    4 fps=1.4 q=-0.0 size=N/A time=00:00:04.00 bitrate=N/A speed=1.41x    frame=    5 fps=1.4 q=-0.0 size=N/A time=00:00:05.00 bitrate=N/A speed=1.41x    frame=    6 fps=1.5 q=-0.0 Lsize=N/A time=00:00:06.00 bitrate=N/A speed=1.52x    
video:1728kB audio:0kB subtitle:0kB other streams:0kB global headers:0kB muxing overhead: unknown
